<svg width="48px" height="48px" viewBox="0 0 48 48" xmlns="http://www.w3.org/2000/svg"><title>Google G Logo</title><path fill="#4285F4" d="M45.12 24.5c0-1.56-.14-3.06-.4-4.5H24v8.51h11.84c-.51 2.75-1.99 4.96-3.95 6.52v5.47h6.99c4.09-3.78 6.44-9.31 6.44-15.99z"/><path fill="#34A853" d="M24 46c5.94 0 10.92-1.96 14.56-5.32l-6.99-5.47c-1.96 1.32-4.49 2.1-7.57 2.1-5.82 0-10.75-3.93-12.53-9.17H4.49v5.64C8.16 41.07 15.48 46 24 46z"/><path fill="#FBBC05" d="M11.47 28.17c-.38-1.13-.59-2.31-.59-3.53s.21-2.4.59-3.53V15.47H4.49C3.06 18.25 2 21.51 2 25.14s1.06 6.89 2.99 9.67l6.98-5.64z"/><path fill="#EA4335" d="M24 10.75c3.23 0 6.13 1.11 8.41 3.29l5.88-5.88C34.91 4.19 29.93 2 24 2 15.48 2 8.16 6.93 4.49 12.83l6.98 5.64c1.78-5.24 6.71-9.17 12.53-9.17z"/><path fill="none" d="M2 2h44v44H2z"/></svg>